  0
SECTION
  2
HEADER
  9
$ACADVER
  1
AC1009
  9
$EXTMAX
 10
55.5999984741211
 20
128.5
 30
0.0
  9
$EXTMIN
 10
0.0
 20
-10.710000038147
 30
0.0
  9
$INSUNITS
 70
     4
  9
$LUNITS
 70
     2
  9
$LUPREC
 70
     4
  9
$MEASUREMENT
 70
     1
  0
ENDSEC
  0
SECTION
  2
TABLES
  0
TABLE
  2
LAYER
 70
     1
  0
LAYER
  2
0
 70
     0
 62
     7
  6
Continuous
  0
LAYER
  2
Default
 70
     0
 62
    70
  6
Continuous
  0
ENDTAB
  0
TABLE
  2
APPID
 70
     1
  0
APPID
  2
ACAD
 70
     0
  0
ENDTAB
  0
ENDSEC
  0
SECTION
  2
ENTITIES
  0
POINT
  8
Default
 10
7.5
 20
0.0
 30
0.0
  0
POINT
  8
Default
 10
0.0
 20
3.0
 30
0.0
  0
POINT
  8
Default
 10
0.0
 20
128.5
 30
0.0
  0
TEXT
  8
Default
 10
3.6399999999999
 20
88.3299999999999
 30
0.0
 40
8.1
  1
coarse
 72
     0
 73
     1
  0
POINT
  8
Default
 10
0.0
 20
125.5
 30
0.0
  0
POINT
  8
Default
 10
0.0
 20
10.71
 30
0.0
  0
POINT
  8
Default
 10
0.0
 20
-10.71
 30
0.0
  0
POINT
  8
Default
 10
0.0
 20
10.71
 30
0.0
  0
TEXT
  8
Default
 10
1.25
 20
114.7
 30
0.0
 40
8.1
  1
MFOS VCO VI
 72
     0
 73
     1
  0
TEXT
  8
Default
 10
36.1000000000001
 20
88.2699999999999
 30
0.0
 40
8.1
  1
fine
 72
     0
 73
     1
  0
TEXT
  8
Default
 10
12.1000000000001
 20
64.07
 30
0.0
 40
8.1
  1
lin FM
 72
     0
 73
     1
  0
TEXT
  8
Default
 10
3.17
 20
9.37
 30
0.0
 40
8.1
  1
saw
 72
     0
 73
     1
  0
TEXT
  8
Default
 10
23.63
 20
9.24
 30
0.0
 40
8.1
  1
tri
 72
     0
 73
     1
  0
TEXT
  8
Default
 10
38.7
 20
9.31
 30
0.0
 40
8.1
  1
sine
 72
     0
 73
     1
  0
TEXT
  8
Default
 10
22.8399999999996
 20
32.1300000000001
 30
0.0
 40
8.1
  1
pulse
 72
     0
 73
     1
  0
TEXT
  8
Default
 10
3.3099999999995
 20
41.23
 30
0.0
 40
8.1
  1
pwm
 72
     0
 73
     1
  0
POLYLINE
  8
Default
 66
     1
 10
0.0
 20
0.0
 30
0.0
 70
     0
  0
VERTEX
  8
Default
 10
15.8
 20
103.8
 42
0.0
  0
VERTEX
  8
Default
 10
42.3047165613971
 20
103.8
 42
0.0
  0
SEQEND
  0
POLYLINE
  8
Default
 66
     1
 10
0.0
 20
0.0
 30
0.0
 70
     0
  0
VERTEX
  8
Default
 10
6.7
 20
88.2999999999999
 42
0.0
  0
VERTEX
  8
Default
 10
51.1136240358744
 20
88.2999999999999
 42
0.0
  0
SEQEND
  0
POLYLINE
  8
Default
 66
     1
 10
0.0
 20
0.0
 30
0.0
 70
     0
  0
VERTEX
  8
Default
 10
20.08
 20
0.0
 42
0.0
  0
VERTEX
  8
Default
 10
0.0
 20
0.0
 42
0.0
  0
VERTEX
  8
Default
 10
0.0
 20
128.5
 42
0.0
  0
VERTEX
  8
Default
 10
55.5999999999953
 20
128.5
 42
0.0
  0
VERTEX
  8
Default
 10
55.5999999999953
 20
0.0
 42
0.0
  0
VERTEX
  8
Default
 10
0.0
 20
0.0
 42
0.0
  0
SEQEND
  0
TEXT
  8
Default
 10
4.3
 20
76.1999999999998
 30
0.0
 40
8.1
  1
1V/oct
 72
     0
 73
     1
  0
TEXT
  8
Default
 10
21.1
 20
53.3
 30
0.0
 40
8.1
  1
sync
 72
     0
 73
     1
  0
POLYLINE
  8
Default
 66
     1
 10
0.0
 20
0.0
 30
0.0
 70
     0
  0
VERTEX
  8
Default
 10
2.5
 20
55.4
 42
0.0
  0
VERTEX
  8
Default
 10
8.0
 20
55.4
 42
0.0
  0
VERTEX
  8
Default
 10
5.8
 20
57.6
 42
0.0
  0
SEQEND
  0
POLYLINE
  8
Default
 66
     1
 10
0.0
 20
0.0
 30
0.0
 70
     0
  0
VERTEX
  8
Default
 10
47.6
 20
55.4
 42
0.0
  0
VERTEX
  8
Default
 10
53.1
 20
55.4
 42
0.0
  0
VERTEX
  8
Default
 10
50.9
 20
57.6
 42
0.0
  0
SEQEND
  0
POLYLINE
  8
Default
 66
     1
 10
0.0
 20
0.0
 30
0.0
 70
     0
  0
VERTEX
  8
Default
 10
10.7999999999999
 20
39.5000000000002
 42
0.3583455238017
  0
VERTEX
  8
Default
 10
15.3
 20
34.1000000000002
 42
0.0
  0
VERTEX
  8
Default
 10
20.8
 20
34.1000000000002
 42
0.0
  0
VERTEX
  8
Default
 10
18.6
 20
36.3000000000001
 42
0.0
  0
SEQEND
  0
POINT
  8
Default
 10
13.9000000000001
 20
103.8
 30
0.0
  0
POINT
  8
Default
 10
41.9700000000001
 20
103.86
 30
0.0
  0
POINT
  8
Default
 10
48.0999999999953
 20
3.0
 30
0.0
  0
POINT
  8
Default
 10
48.0999999999953
 20
125.5
 30
0.0
  0
POINT
  8
Default
 10
7.5
 20
3.0
 30
0.0
  0
POINT
  8
Default
 10
7.5
 20
125.5
 30
0.0
  0
POINT
  8
Default
 10
33.7
 20
78.2999999999998
 30
0.0
  0
POINT
  8
Default
 10
47.8
 20
78.1999999999998
 30
0.0
  0
POINT
  8
Default
 10
40.9
 20
67.0
 30
0.0
  0
POINT
  8
Default
 10
14.6999999999999
 20
55.3
 30
0.0
  0
POINT
  8
Default
 10
41.7
 20
55.4
 30
0.0
  0
POINT
  8
Default
 10
26.1999999999994
 20
43.4
 30
0.0
  0
POINT
  8
Default
 10
46.8
 20
34.3000000000001
 30
0.0
  0
POINT
  8
Default
 10
9.1
 20
21.0
 30
0.0
  0
POINT
  8
Default
 10
27.1
 20
21.0
 30
0.0
  0
POINT
  8
Default
 10
45.3
 20
21.0
 30
0.0
  0
ENDSEC
  0
EOF
